<svg width="248" height="69" viewBox="0 0 248 69" fill="none" xmlns="http://www.w3.org/2000/svg">
<g filter="url(#filter0_d)">
<rect x="4" y="6" width="240" height="55" rx="27.5" fill="#212121"/>
</g>
<rect x="1" width="240" height="55" rx="27.5" fill="#0477BD"/>
<path d="M75.8 32.8V23.95C75.8 21.15 77.2 19.75 80 19.75H87.225L88.9 21.05V23H80.15C79.65 23 79.4 23.25 79.4 23.75V33C79.4 33.5 79.65 33.75 80.15 33.75H85.8V29.75H82.5V26.5H89.4V37H80C77.2 37 75.8 35.6 75.8 32.8ZM91.3934 36.325L96.5184 19.75H102.018L107.143 36.325L106.693 37H103.693L102.643 33.5H95.8934L94.8434 37H91.8434L91.3934 36.325ZM96.8684 30.25H101.668L99.4684 23H99.0684L96.8684 30.25ZM109.644 37V19.75H113.944L118.819 30.175L123.694 19.75H127.994V37H124.394V26.1L120.344 34.75H117.294L113.244 26.1V37H109.644ZM132.105 37V19.75H143.905V23H135.705V26.5H143.155V29.75H135.705V33.75H143.905V37H132.105ZM147.193 37V19.75H155.593C158.393 19.75 159.793 21.15 159.793 23.95V27.3C159.793 30.1 158.393 31.5 155.593 31.5H150.793V37H147.193ZM150.793 28.25H155.443C155.943 28.25 156.193 28 156.193 27.5V23.75C156.193 23.25 155.943 23 155.443 23H150.793V28.25ZM163.135 37V19.75H166.735V33.75H174.185V37H163.135ZM175.231 36.325L180.356 19.75H185.856L190.981 36.325L190.531 37H187.531L186.481 33.5H179.731L178.681 37H175.681L175.231 36.325ZM180.706 30.25H185.506L183.306 23H182.906L180.706 30.25ZM190.637 20.425L191.062 19.75H194.137L197.887 27.075L201.637 19.75H204.712L205.137 20.425L199.687 30.9V37H196.087V30.9L190.637 20.425Z" fill="white"/>
<path d="M45.25 29.25C45.25 29.6016 44.9766 29.875 44.625 29.875H40.875V33.625C40.875 33.9766 40.6016 34.25 40.25 34.25H37.75C37.3984 34.25 37.125 33.9766 37.125 33.625V29.875H33.375C33.0234 29.875 32.75 29.6016 32.75 29.25V26.75C32.75 26.3984 33.0234 26.125 33.375 26.125H37.125V22.375C37.125 22.0234 37.3984 21.75 37.75 21.75H40.25C40.6016 21.75 40.875 22.0234 40.875 22.375V26.125H44.625C44.9766 26.125 45.25 26.3984 45.25 26.75V29.25ZM56.5 30.5C56.5 31.8867 55.3867 33 54 33C52.6133 33 51.5 31.8867 51.5 30.5C51.5 29.1133 52.6133 28 54 28C55.3867 28 56.5 29.1133 56.5 30.5ZM61.5 25.5C61.5 26.8867 60.3867 28 59 28C57.6133 28 56.5 26.8867 56.5 25.5C56.5 24.1133 57.6133 23 59 23C60.3867 23 61.5 24.1133 61.5 25.5ZM66.5 28C66.5 22.4727 62.0273 18 56.5 18H39C33.4727 18 29 22.4727 29 28C29 33.5273 33.4727 38 39 38C41.5391 38 43.8438 37.043 45.6016 35.5H49.8984C51.6563 37.043 53.9609 38 56.5 38C62.0273 38 66.5 33.5273 66.5 28Z" fill="white"/>
<defs>
<filter id="filter0_d" x="0" y="6" width="248" height="63" filterUnits="userSpaceOnUse" color-interpolation-filters="sRGB">
<feFlood flood-opacity="0" result="BackgroundImageFix"/>
<feColorMatrix in="SourceAlpha" type="matrix" values="0 0 0 0 0 0 0 0 0 0 0 0 0 0 0 0 0 0 127 0"/>
<feOffset dy="4"/>
<feGaussianBlur stdDeviation="2"/>
<feColorMatrix type="matrix" values="0 0 0 0 0 0 0 0 0 0 0 0 0 0 0 0 0 0 0.25 0"/>
<feBlend mode="normal" in2="BackgroundImageFix" result="effect1_dropShadow"/>
<feBlend mode="normal" in="SourceGraphic" in2="effect1_dropShadow" result="shape"/>
</filter>
</defs>
</svg>
