<svg width="1440" height="902" viewBox="0 0 1440 902" fill="none" xmlns="http://www.w3.org/2000/svg">
<path d="M1446.3 0H-6.30103V902H1446.3V0Z" fill="#F7FAFF"/>
<path d="M1396.51 560.731C1396.51 560.731 1509.2 872.071 1333.09 872.071C1223.11 872.071 157.034 979.101 -28.3539 788.359C-31.3702 785.237 -34.4639 503.139 34.3702 517.537C241.801 560.794 347.836 567.547 468.18 545.377C588.523 523.207 603.914 462.238 753.184 440.004C878.013 421.401 954.35 477.082 1139.51 537.35C1213.44 561.431 1396.51 560.731 1396.51 560.731Z" fill="url(#paint0_linear)"/>
<path d="M67.5573 186.918C77.1286 199.25 94.4367 205.24 114.297 205.24C139.581 205.24 160.877 195.551 167.019 175.203C168.056 175.291 169.093 175.291 170.13 175.291C196.211 175.291 217.428 155.207 217.428 130.367C217.428 105.527 196.291 85.4434 170.13 85.4434H169.97C167.896 64.2147 149.392 47.6545 126.82 47.6545C114.616 47.5664 102.971 52.5873 94.5962 61.484C84.4666 52.5873 71.3859 47.6545 57.8265 47.6545C27.7567 47.6545 3.34996 71.2616 3.34996 100.418C3.34996 101.827 3.42973 103.237 3.50949 104.558C-15.1545 112.926 -28.1555 131.248 -28.1555 152.477C-28.1555 181.633 -3.74874 205.24 26.3211 205.24C42.1137 205.24 57.1087 198.634 67.5573 186.918Z" fill="url(#paint1_linear)"/>
<path d="M398.963 381.676C412.602 399.294 437.408 407.838 465.723 407.838C501.934 407.838 532.403 393.92 541.097 364.852C542.532 364.94 544.048 365.028 545.484 365.028C582.812 365.028 613.041 336.224 613.041 300.725C613.041 265.227 582.812 236.423 545.484 236.423H545.244C542.293 206.121 515.813 182.426 483.51 182.426C466.042 182.338 449.372 189.473 437.488 202.157C423.051 189.385 404.307 182.338 384.925 182.426C341.854 182.426 306.999 216.251 306.999 257.916C306.999 259.942 307.079 261.879 307.238 263.905C280.518 275.885 261.934 302.047 261.934 332.436C261.934 374.101 296.79 407.926 339.86 407.926C362.512 407.926 383.968 398.325 398.963 381.676Z" fill="url(#paint2_linear)"/>
<path d="M991.505 196.344C997.567 204.183 1008.65 208.059 1021.26 208.059C1037.37 208.059 1051.01 201.893 1054.92 188.856C1055.55 188.856 1056.19 188.944 1056.91 188.944C1073.58 188.944 1087.06 176.084 1087.06 160.316C1087.06 144.549 1073.58 131.688 1056.91 131.688H1056.75C1055.47 118.211 1043.59 107.553 1029.23 107.553C1021.42 107.553 1014 110.724 1008.73 116.362C1002.27 110.636 993.978 107.553 985.284 107.553C966.062 107.553 950.508 122.616 950.508 141.202C950.508 142.083 950.509 142.963 950.588 143.844C938.385 149.218 930.489 161.197 930.409 174.41C930.409 192.996 945.962 208.059 965.184 208.059C975.234 208.059 984.885 203.831 991.505 196.344Z" fill="url(#paint3_linear)"/>
<path d="M542.772 31.0063C548.435 40.8719 560.399 46.9498 574.756 48.9758C593.101 51.5303 609.531 46.5975 616.072 32.5037C616.79 32.6799 617.508 32.768 618.305 32.8561C637.208 35.4986 654.596 23.0785 657.149 5.0209C659.701 -13.0367 646.461 -29.685 627.478 -32.3275H627.318C628.036 -47.9187 616.311 -61.7482 599.96 -64.0385C591.107 -65.2717 582.174 -62.8934 575.234 -57.2559C568.853 -64.7432 559.841 -69.5879 550.03 -70.9973C528.255 -74.0803 508.156 -59.3699 505.125 -38.2293C504.965 -37.1723 504.885 -36.2033 504.806 -35.1463C490.05 -31.0062 479.123 -18.6742 476.969 -3.61151C474.018 17.5291 489.252 37.0842 511.027 40.1672C522.433 41.6647 533.998 38.4055 542.772 31.0063Z" fill="url(#paint4_linear)"/>
<path d="M1323.87 317.55C1313.1 331.555 1293.4 338.25 1270.99 338.25C1242.35 338.25 1218.19 327.239 1211.33 304.249C1210.21 304.337 1209.01 304.337 1207.82 304.337C1178.23 304.337 1154.3 281.523 1154.3 253.423C1154.3 225.324 1178.23 202.51 1207.82 202.51H1208.06C1210.37 178.55 1231.35 159.7 1256.87 159.7C1270.67 159.612 1283.91 165.337 1293.32 175.291C1304.81 165.161 1319.56 159.612 1334.88 159.7C1368.93 159.7 1396.53 186.478 1396.53 219.422C1396.53 221.008 1396.45 222.593 1396.37 224.179C1417.51 233.604 1432.26 254.392 1432.26 278.44C1432.26 311.472 1404.67 338.162 1370.61 338.162C1352.74 338.338 1335.67 330.851 1323.87 317.55Z" fill="url(#paint5_linear)"/>
<path d="M1036.81 760.886L1468.63 770.488L1431.7 743.269L1054.92 750.668L1036.81 760.886Z" fill="url(#paint6_linear)"/>
<path d="M738.669 133.123L754.049 162.126L774.657 151.011L738.669 133.123Z" fill="#52556E"/>
<path d="M736.351 134.073L751.737 163.085L731.12 174.204L736.351 134.073Z" fill="#9EA4B8"/>
<path d="M771.479 194.771L756.092 165.758L776.71 154.64L771.479 194.771Z" fill="#9EA4B8"/>
<path d="M769.268 195.757L753.888 166.754L733.28 177.868L769.268 195.757Z" fill="#52556E"/>
<path d="M777.954 152.832L788.004 143.318L778.911 139.09L777.954 152.832Z" fill="#52556E"/>
<path d="M778.752 154.153L792.471 152.127L790.237 161.905L778.752 154.153Z" fill="#9EA4B8"/>
<path d="M731.646 176.671L721.709 186.378L730.879 190.412L731.646 176.671Z" fill="#52556E"/>
<path d="M730.813 175.431L717.107 177.648L719.208 167.938L730.813 175.431Z" fill="#9EA4B8"/>
<path opacity="0.7" d="M770.854 197.22C770.854 202.681 784.254 226.465 749.398 256.766C714.543 287.068 732.33 326.53 749.398 339.743" stroke="white" stroke-width="3.24" stroke-miterlimit="10" stroke-linecap="round" stroke-linejoin="round"/>
<path d="M772.369 221.532L779.628 233.247L785.69 225.231L772.369 221.532Z" fill="#52556E"/>
<path d="M772.688 223.47L759.289 219.946L765.191 211.842L772.688 223.47Z" fill="#9EA4B8"/>
<path d="M756.098 250.864L756.976 264.606L766.068 260.378L756.098 250.864Z" fill="#9EA4B8"/>
<path d="M755.699 251.129L745.809 241.439L754.982 237.387L755.699 251.129Z" fill="#52556E"/>
<path d="M731.133 283.104L741.741 292L745.011 282.575L731.133 283.104Z" fill="#52556E"/>
<path d="M731.612 283.544L717.733 282.928L721.801 273.767L731.612 283.544Z" fill="#9EA4B8"/>
<path d="M735.281 320.893L748.999 322.654L746.527 312.965L735.281 320.893Z" fill="#9EA4B8"/>
<path d="M735.041 321.421L722.838 327.94L721.642 317.986L735.041 321.421Z" fill="#52556E"/>
<path d="M870.237 281.787C849.26 280.554 817.117 268.398 809.38 228.847C801.643 189.297 781.225 170.006 756.578 164.897" stroke="#CDD4E0" stroke-width="1.62" stroke-miterlimit="10"/>
<defs>
<linearGradient id="paint0_linear" x1="701.281" y1="438.666" x2="701.281" y2="705.093" gradientUnits="userSpaceOnUse">
<stop stop-color="#E7EAF3"/>
<stop offset="1" stop-color="#F7FAFF" stop-opacity="0"/>
</linearGradient>
<linearGradient id="paint1_linear" x1="94.6257" y1="103.855" x2="94.6257" y2="205.231" gradientUnits="userSpaceOnUse">
<stop stop-color="white"/>
<stop offset="1" stop-color="white" stop-opacity="0.157"/>
</linearGradient>
<linearGradient id="paint2_linear" x1="437.503" y1="262.862" x2="437.503" y2="407.82" gradientUnits="userSpaceOnUse">
<stop stop-color="white"/>
<stop offset="1" stop-color="white" stop-opacity="0.157"/>
</linearGradient>
<linearGradient id="paint3_linear" x1="1008.73" y1="143.335" x2="1008.73" y2="207.984" gradientUnits="userSpaceOnUse">
<stop stop-color="white"/>
<stop offset="1" stop-color="white" stop-opacity="0.157"/>
</linearGradient>
<linearGradient id="paint4_linear" x1="570.517" y1="-26.4955" x2="559.028" y2="47.5234" gradientUnits="userSpaceOnUse">
<stop stop-color="white"/>
<stop offset="1" stop-color="white" stop-opacity="0.157"/>
</linearGradient>
<linearGradient id="paint5_linear" x1="1293.27" y1="223.538" x2="1293.27" y2="338.305" gradientUnits="userSpaceOnUse">
<stop stop-color="white"/>
<stop offset="1" stop-color="white" stop-opacity="0.157"/>
</linearGradient>
<linearGradient id="paint6_linear" x1="1315.93" y1="792.691" x2="1314.36" y2="728.572" gradientUnits="userSpaceOnUse">
<stop stop-color="#536DB5" stop-opacity="0"/>
<stop offset="1" stop-color="#0E284B" stop-opacity="0.212"/>
</linearGradient>
</defs>
</svg>
