<svg width="609" height="527" viewBox="0 0 609 527" fill="none" xmlns="http://www.w3.org/2000/svg">
<g clip-path="url(#clip0)">
<path d="M290.733 527C451.3 527 581.465 493.293 581.465 451.714C581.465 410.135 451.3 376.429 290.733 376.429C130.165 376.429 0 410.135 0 451.714C0 493.293 130.165 527 290.733 527Z" fill="#F2F2F2"/>
<path d="M401.359 189.81C428.725 189.81 450.91 167.634 450.91 140.279C450.91 112.923 428.725 90.7473 401.359 90.7473C373.993 90.7473 351.809 112.923 351.809 140.279C351.809 167.634 373.993 189.81 401.359 189.81Z" fill="#0477BD"/>
<path d="M317.136 306.381C344.502 306.381 366.687 284.205 366.687 256.85C366.687 229.495 344.502 207.319 317.136 207.319C289.77 207.319 267.585 229.495 267.585 256.85C267.585 284.205 289.77 306.381 317.136 306.381Z" fill="#0477BD"/>
<path d="M317.457 511.619C478.025 511.619 608.19 477.912 608.19 436.333C608.19 394.754 478.025 361.048 317.457 361.048C156.89 361.048 26.7247 394.754 26.7247 436.333C26.7247 477.912 156.89 511.619 317.457 511.619Z" stroke="#3F3D56" stroke-width="2" stroke-miterlimit="10"/>
<path d="M101.072 411.643C136.405 411.643 165.049 383.01 165.049 347.69C165.049 312.371 136.405 283.738 101.072 283.738C65.738 283.738 37.0944 312.371 37.0944 347.69C37.0944 383.01 65.738 411.643 101.072 411.643Z" fill="#2F2E41"/>
<path d="M91.3537 397.881H71.9175V432.691H91.3537V397.881Z" fill="#2F2E41"/>
<path d="M130.226 397.881H110.79V432.691H130.226V397.881Z" fill="#2F2E41"/>
<path d="M88.1143 439.167C97.0595 439.167 104.311 436.448 104.311 433.095C104.311 429.742 97.0595 427.024 88.1143 427.024C79.169 427.024 71.9175 429.742 71.9175 433.095C71.9175 436.448 79.169 439.167 88.1143 439.167Z" fill="#2F2E41"/>
<path d="M126.987 438.357C135.932 438.357 143.183 435.639 143.183 432.286C143.183 428.933 135.932 426.214 126.987 426.214C118.041 426.214 110.79 428.933 110.79 432.286C110.79 435.639 118.041 438.357 126.987 438.357Z" fill="#2F2E41"/>
<path d="M102.691 353.357C114.768 353.357 124.557 343.571 124.557 331.5C124.557 319.429 114.768 309.643 102.691 309.643C90.6154 309.643 80.8258 319.429 80.8258 331.5C80.8258 343.571 90.6154 353.357 102.691 353.357Z" fill="white"/>
<path d="M102.691 338.786C106.717 338.786 109.98 335.524 109.98 331.5C109.98 327.476 106.717 324.214 102.691 324.214C98.666 324.214 95.4028 327.476 95.4028 331.5C95.4028 335.524 98.666 338.786 102.691 338.786Z" fill="#3F3D56"/>
<path d="M39.0115 288.217C33.8456 265.09 50.3589 241.722 75.8949 236.023C101.431 230.323 126.32 244.45 131.486 267.576C136.651 290.702 119.728 299.231 94.1918 304.931C68.6558 310.631 44.1774 311.343 39.0115 288.217Z" fill="#0477BD"/>
<path d="M161.076 334.935C177.318 327.987 188.716 318.222 186.533 313.125C184.351 308.028 169.415 309.529 153.174 316.478C136.932 323.427 125.534 333.192 127.717 338.289C129.899 343.386 144.835 341.884 161.076 334.935Z" fill="#2F2E41"/>
<path d="M41.2201 377.84C57.4618 370.891 68.8592 361.126 66.6769 356.03C64.4946 350.933 49.559 352.434 33.3172 359.383C17.0755 366.332 5.67804 376.097 7.86035 381.194C10.0427 386.29 24.9783 384.789 41.2201 377.84Z" fill="#2F2E41"/>
<path d="M138.324 366.309C138.324 372.569 122.202 384.929 104.311 384.929C86.4207 384.929 69.488 373.378 69.488 367.119C69.488 360.86 86.4207 362.262 104.311 362.262C122.202 362.262 138.324 360.05 138.324 366.309Z" fill="white"/>
<path d="M222.385 399.477C249.751 399.477 271.935 377.301 271.935 349.945C271.935 322.59 249.751 300.414 222.385 300.414C195.018 300.414 172.834 322.59 172.834 349.945C172.834 377.301 195.018 399.477 222.385 399.477Z" fill="#0477BD"/>
<path d="M222.341 439.521V349.673" stroke="#3F3D56" stroke-width="2" stroke-miterlimit="10"/>
<path d="M222.341 362.379C229.36 362.379 235.051 356.69 235.051 349.673C235.051 342.656 229.36 336.967 222.341 336.967C215.321 336.967 209.63 342.656 209.63 349.673C209.63 356.69 215.321 362.379 222.341 362.379Z" fill="#3F3D56"/>
<path d="M222.341 405.048C222.341 405.048 220.525 366.009 183.3 370.546L222.341 405.048Z" fill="#3F3D56"/>
<path d="M401.39 440.151V140.461" stroke="#3F3D56" stroke-width="2" stroke-miterlimit="10"/>
<path d="M401.39 153.024C408.41 153.024 414.101 147.336 414.101 140.319C414.101 133.301 408.41 127.613 401.39 127.613C394.37 127.613 388.68 133.301 388.68 140.319C388.68 147.336 394.37 153.024 401.39 153.024Z" fill="#3F3D56"/>
<path d="M362.35 369.852C369.37 369.852 375.061 364.163 375.061 357.146C375.061 350.129 369.37 344.44 362.35 344.44C355.33 344.44 349.64 350.129 349.64 357.146C349.64 364.163 355.33 369.852 362.35 369.852Z" fill="#3F3D56"/>
<path d="M401.39 205.22C401.39 205.22 399.575 166.181 362.35 170.719L401.39 205.22Z" fill="#3F3D56"/>
<path d="M401.39 315.892C401.39 315.892 399.575 276.853 362.35 281.39L401.39 315.892Z" fill="#3F3D56"/>
<path d="M401.39 436.658C401.39 436.658 409.562 360.776 362.35 357.146" stroke="#3F3D56" stroke-width="2" stroke-miterlimit="10"/>
<path d="M440.436 369.852C447.456 369.852 453.147 364.163 453.147 357.146C453.147 350.129 447.456 344.44 440.436 344.44C433.416 344.44 427.725 350.129 427.725 357.146C427.725 364.163 433.416 369.852 440.436 369.852Z" fill="#3F3D56"/>
<path d="M401.396 436.658C401.396 436.658 393.225 360.776 440.436 357.146" stroke="#3F3D56" stroke-width="2" stroke-miterlimit="10"/>
<path d="M441.21 250.667C448.23 250.667 453.921 244.979 453.921 237.961C453.921 230.944 448.23 225.256 441.21 225.256C434.19 225.256 428.5 230.944 428.5 237.961C428.5 244.979 434.19 250.667 441.21 250.667Z" fill="#3F3D56"/>
<path d="M402.17 313.426C402.17 313.426 393.999 241.592 441.21 237.961" stroke="#3F3D56" stroke-width="2" stroke-miterlimit="10"/>
<path d="M317.181 439.728V256.794" stroke="#3F3D56" stroke-width="2" stroke-miterlimit="10"/>
<path d="M317.181 269.5C324.201 269.5 329.892 263.812 329.892 256.794C329.892 249.777 324.201 244.089 317.181 244.089C310.161 244.089 304.47 249.777 304.47 256.794C304.47 263.812 310.161 269.5 317.181 269.5Z" fill="#3F3D56"/>
<path d="M317.181 308.539C317.181 308.539 315.365 269.5 278.141 274.038L317.181 308.539Z" fill="#3F3D56"/>
<path d="M317.181 436.236C317.181 436.236 325.352 361.163 278.141 357.533" stroke="#3F3D56" stroke-width="2" stroke-miterlimit="10"/>
<path d="M278.141 370.239C285.161 370.239 290.852 364.55 290.852 357.533C290.852 350.516 285.161 344.827 278.141 344.827C271.121 344.827 265.43 350.516 265.43 357.533C265.43 364.55 271.121 370.239 278.141 370.239Z" fill="#3F3D56"/>
<path d="M176.956 439.552H439.344" stroke="#3F3D56" stroke-width="2" stroke-miterlimit="10"/>
<path d="M535.305 310.048C549.617 310.048 561.219 298.45 561.219 284.143C561.219 269.836 549.617 258.238 535.305 258.238C520.992 258.238 509.39 269.836 509.39 284.143C509.39 298.45 520.992 310.048 535.305 310.048Z" fill="#F2F2F2"/>
<path d="M127.145 148.143C141.457 148.143 153.06 136.545 153.06 122.238C153.06 107.931 141.457 96.3333 127.145 96.3333C112.833 96.3333 101.23 107.931 101.23 122.238C101.23 136.545 112.833 148.143 127.145 148.143Z" fill="#F2F2F2"/>
<path d="M388.723 51.8095C403.036 51.8095 414.638 40.2116 414.638 25.9048C414.638 11.598 403.036 0 388.723 0C374.411 0 362.808 11.598 362.808 25.9048C362.808 40.2116 374.411 51.8095 388.723 51.8095Z" fill="#F2F2F2"/>
<path d="M260.375 124.509L291.713 163.167L242.566 170.978L260.375 124.509Z" fill="#212121"/>
<path d="M425.414 519.605L456.562 480.794L474.599 527.175L425.414 519.605Z" fill="#0477BD"/>
</g>
<defs>
<clipPath id="clip0">
<rect width="609" height="527" fill="white"/>
</clipPath>
</defs>
</svg>
