<svg width="589" height="370" viewBox="0 0 589 370" fill="none" xmlns="http://www.w3.org/2000/svg">
<g clip-path="url(#clip0)">
<path d="M561.665 370H63.8374C59.4103 370 55.1646 368.242 52.0341 365.113C48.9037 361.984 47.145 357.74 47.145 353.316C227.607 332.353 404.678 332.353 578.357 353.316C578.357 357.74 576.599 361.984 573.468 365.113C570.338 368.242 566.092 370 561.665 370Z" fill="#CCCCCC"/>
<path d="M578.357 354.297L47.145 353.316L108.711 249.775L109.005 249.284V21.091C109.005 18.3212 109.551 15.5785 110.611 13.0195C111.671 10.4606 113.226 8.13542 115.185 6.17689C117.145 4.21837 119.471 2.66483 122.031 1.60499C124.591 0.54515 127.335 -0.000231373 130.106 7.36344e-08H492.45C495.221 -0.000231373 497.965 0.54515 500.525 1.60499C503.086 2.66483 505.412 4.21837 507.371 6.17689C509.331 8.13542 510.885 10.4606 511.946 13.0195C513.006 15.5785 513.552 18.3212 513.551 21.091V250.854L578.357 354.297Z" fill="#E6E6E6"/>
<path d="M129.625 14.7214C127.803 14.7235 126.056 15.4479 124.767 16.7359C123.479 18.0238 122.754 19.77 122.752 21.5915V229.655C122.754 231.476 123.479 233.223 124.767 234.511C126.056 235.799 127.803 236.523 129.625 236.525H495.877C497.699 236.523 499.446 235.798 500.735 234.511C502.023 233.223 502.748 231.476 502.75 229.655V21.5915C502.748 19.7701 502.023 18.0239 500.735 16.736C499.446 15.448 497.699 14.7236 495.877 14.7214H129.625Z" fill="white"/>
<path d="M132.032 264.005C131.469 264.006 130.918 264.168 130.444 264.472C129.97 264.775 129.592 265.208 129.356 265.719L110.386 306.939C110.179 307.388 110.089 307.881 110.123 308.374C110.157 308.866 110.315 309.342 110.581 309.758C110.848 310.174 111.215 310.516 111.648 310.753C112.081 310.99 112.567 311.114 113.062 311.114H511.997C512.499 311.114 512.993 310.986 513.431 310.741C513.87 310.497 514.238 310.145 514.502 309.718C514.766 309.291 514.917 308.803 514.939 308.302C514.962 307.801 514.855 307.302 514.631 306.853L494.011 265.633C493.767 265.143 493.392 264.731 492.926 264.443C492.461 264.155 491.924 264.004 491.377 264.005L132.032 264.005Z" fill="#CCCCCC"/>
<path d="M311.278 11.2865C313.719 11.2865 315.697 9.30919 315.697 6.87006C315.697 4.43092 313.719 2.45361 311.278 2.45361C308.838 2.45361 306.86 4.43092 306.86 6.87006C306.86 9.30919 308.838 11.2865 311.278 11.2865Z" fill="white"/>
<path d="M272.066 318.966C271.419 318.966 270.789 319.18 270.275 319.574C269.761 319.968 269.391 320.519 269.222 321.144L264.464 338.81C264.346 339.246 264.33 339.704 264.418 340.147C264.506 340.591 264.694 341.008 264.969 341.367C265.244 341.725 265.598 342.016 266.004 342.216C266.409 342.416 266.855 342.52 267.308 342.52H357.804C358.273 342.52 358.736 342.408 359.153 342.193C359.571 341.977 359.931 341.666 360.203 341.283C360.475 340.901 360.652 340.459 360.719 339.994C360.786 339.53 360.74 339.056 360.586 338.612L354.469 320.947C354.268 320.368 353.892 319.867 353.393 319.512C352.895 319.157 352.297 318.966 351.685 318.966H272.066Z" fill="#CCCCCC"/>
<path d="M513.552 245.848V249.775H108.711L109.015 249.284V245.848H513.552Z" fill="#CCCCCC"/>
<path d="M463.582 254.842C463.424 254.842 463.271 254.894 463.146 254.99C463.02 255.086 462.93 255.22 462.889 255.372L461.73 259.674C461.702 259.78 461.698 259.892 461.719 260C461.741 260.108 461.787 260.209 461.853 260.296C461.92 260.384 462.007 260.455 462.105 260.503C462.204 260.552 462.313 260.577 462.423 260.577H484.46C484.574 260.577 484.687 260.55 484.789 260.498C484.89 260.445 484.978 260.369 485.044 260.276C485.111 260.183 485.154 260.076 485.17 259.962C485.186 259.849 485.175 259.734 485.138 259.626L483.648 255.324C483.599 255.183 483.507 255.061 483.386 254.975C483.265 254.888 483.119 254.842 482.97 254.842H463.582Z" fill="#CCCCCC"/>
<path d="M431.405 254.842C431.247 254.842 431.094 254.894 430.969 254.99C430.843 255.086 430.753 255.22 430.712 255.372L429.553 259.674C429.525 259.78 429.521 259.892 429.542 260C429.564 260.108 429.61 260.209 429.676 260.296C429.743 260.384 429.83 260.455 429.928 260.503C430.027 260.552 430.136 260.577 430.246 260.577H452.283C452.397 260.577 452.51 260.55 452.612 260.498C452.713 260.445 452.801 260.369 452.867 260.276C452.934 260.183 452.977 260.076 452.993 259.962C453.009 259.849 452.998 259.734 452.961 259.626L451.471 255.324C451.422 255.183 451.33 255.061 451.209 254.975C451.088 254.888 450.942 254.842 450.793 254.842H431.405Z" fill="#CCCCCC"/>
<path d="M338.181 282.176H339.908L336.454 51.4255H334.727L334.796 56.029H296.085L296.154 51.4255H294.427L290.972 282.176H292.7L292.924 267.214H337.957L338.181 282.176ZM335.692 115.874H295.189L295.611 87.6781H335.269L335.692 115.874ZM335.717 117.601L336.14 145.797H294.741L295.163 117.601H335.717ZM336.165 147.523L336.587 175.72H294.293L294.715 147.523H336.165ZM336.613 177.446L337.035 205.643H293.845L294.267 177.446H336.613ZM337.061 207.369L337.483 235.565H293.397L293.819 207.369H337.061ZM334.822 57.7554L335.244 85.9518H295.637L296.059 57.7554H334.822ZM292.949 265.488L293.372 237.292H337.509L337.931 265.488H292.949Z" fill="#3F3D56"/>
<path d="M306.884 130.903C322.438 130.903 335.047 118.301 335.047 102.754C335.047 87.2074 322.438 74.6045 306.884 74.6045C291.33 74.6045 278.721 87.2074 278.721 102.754C278.721 118.301 291.33 130.903 306.884 130.903Z" fill="#2F2E41"/>
<path d="M323.45 122.208L315.031 123.731L317.762 138.808L326.181 137.285L323.45 122.208Z" fill="#2F2E41"/>
<path d="M306.612 125.254L298.193 126.778L300.924 141.855L309.343 140.331L306.612 125.254Z" fill="#2F2E41"/>
<path d="M305.393 145.028C308.398 142.484 310.06 139.509 309.106 138.383C308.152 137.256 304.942 138.405 301.937 140.949C298.932 143.492 297.27 146.468 298.224 147.594C299.178 148.72 302.388 147.571 305.393 145.028Z" fill="#2F2E41"/>
<path d="M321.88 142.044C324.885 139.501 326.547 136.526 325.593 135.399C324.639 134.273 321.429 135.422 318.424 137.966C315.419 140.509 313.757 143.484 314.711 144.611C315.666 145.737 318.875 144.588 321.88 142.044Z" fill="#2F2E41"/>
<path d="M304.913 105.489C310.228 105.489 314.538 101.182 314.538 95.8685C314.538 90.5551 310.228 86.2478 304.913 86.2478C299.597 86.2478 295.287 90.5551 295.287 95.8685C295.287 101.182 299.597 105.489 304.913 105.489Z" fill="white"/>
<path d="M300.957 95.6269C302.728 95.6269 304.165 94.1912 304.165 92.42C304.165 90.6489 302.728 89.2131 300.957 89.2131C299.185 89.2131 297.748 90.6489 297.748 92.42C297.748 94.1912 299.185 95.6269 300.957 95.6269Z" fill="#3F3D56"/>
<path d="M329.101 72.1304C329.525 61.709 320.539 52.882 309.03 52.4148C297.522 51.9476 287.849 60.017 287.425 70.4383C287.002 80.8597 295.002 83.2275 306.51 83.6948C318.019 84.162 328.678 82.5517 329.101 72.1304Z" fill="#0477BD"/>
<path d="M294.605 100.77C295.151 98.3917 289.448 95.0556 281.867 93.3188C274.287 91.5821 267.699 92.1025 267.154 94.481C266.608 96.8596 272.311 100.196 279.892 101.932C287.472 103.669 294.06 103.149 294.605 100.77Z" fill="#2F2E41"/>
<path d="M349.888 109.959C350.434 107.581 344.731 104.245 337.15 102.508C329.57 100.771 322.983 101.292 322.437 103.67C321.892 106.049 327.595 109.385 335.175 111.122C342.755 112.858 349.343 112.338 349.888 109.959Z" fill="#2F2E41"/>
<path d="M314.619 113.848C314.771 114.677 314.758 115.527 314.581 116.351C314.403 117.175 314.065 117.956 313.586 118.649C313.106 119.342 312.495 119.934 311.786 120.391C311.078 120.848 310.286 121.161 309.457 121.312C308.627 121.463 307.776 121.449 306.952 121.271C306.128 121.093 305.347 120.754 304.654 120.274C303.96 119.794 303.369 119.183 302.912 118.474C302.456 117.766 302.143 116.974 301.993 116.145L301.991 116.133C301.359 112.647 304.056 111.414 307.543 110.783C311.03 110.152 313.988 110.362 314.619 113.848Z" fill="white"/>
<path d="M211.497 198.36C214.343 190.917 214.756 184.159 212.418 183.266C210.08 182.373 205.877 187.683 203.031 195.126C200.185 202.569 199.772 209.327 202.11 210.22C204.448 211.114 208.651 205.804 211.497 198.36Z" fill="#2F2E41"/>
<path d="M209.077 223.156C211.631 207.425 200.942 192.603 185.204 190.05C169.465 187.497 154.636 198.18 152.082 213.911C149.528 229.643 160.216 244.465 175.955 247.018C191.693 249.57 206.523 238.887 209.077 223.156Z" fill="#2F2E41"/>
<path d="M176.194 241.181H167.423V256.887H176.194V241.181Z" fill="#2F2E41"/>
<path d="M193.735 241.181H184.964V256.887H193.735V241.181Z" fill="#2F2E41"/>
<path d="M174.732 259.809C178.769 259.809 182.041 258.583 182.041 257.07C182.041 255.557 178.769 254.33 174.732 254.33C170.695 254.33 167.423 255.557 167.423 257.07C167.423 258.583 170.695 259.809 174.732 259.809Z" fill="#2F2E41"/>
<path d="M192.273 259.444C196.31 259.444 199.582 258.218 199.582 256.705C199.582 255.192 196.31 253.965 192.273 253.965C188.237 253.965 184.964 255.192 184.964 256.705C184.964 258.218 188.237 259.444 192.273 259.444Z" fill="#2F2E41"/>
<path d="M152.574 191.698C150.243 181.263 157.695 170.719 169.218 168.148C180.741 165.576 191.973 171.95 194.304 182.385C196.635 192.82 188.998 196.668 177.475 199.24C165.951 201.812 154.905 202.133 152.574 191.698Z" fill="#0477BD"/>
<path d="M161.104 211.327C162.177 209.067 157.207 204.467 150.003 201.052C142.8 197.637 136.091 196.701 135.019 198.961C133.946 201.222 138.916 205.822 146.119 209.237C153.323 212.652 160.032 213.588 161.104 211.327Z" fill="#2F2E41"/>
<path d="M55.5729 276.609C71.5175 276.609 84.4432 263.689 84.4432 247.752C84.4432 231.815 71.5175 218.896 55.5729 218.896C39.6282 218.896 26.7025 231.815 26.7025 247.752C26.7025 263.689 39.6282 276.609 55.5729 276.609Z" fill="#2F2E41"/>
<path d="M51.1875 270.399H42.4167V286.106H51.1875V270.399Z" fill="#2F2E41"/>
<path d="M68.729 270.399H59.9583V286.106H68.729V270.399Z" fill="#2F2E41"/>
<path d="M49.7257 289.028C53.7623 289.028 57.0347 287.801 57.0347 286.288C57.0347 284.775 53.7623 283.549 49.7257 283.549C45.6891 283.549 42.4167 284.775 42.4167 286.288C42.4167 287.801 45.6891 289.028 49.7257 289.028Z" fill="#2F2E41"/>
<path d="M67.2672 288.662C71.3038 288.662 74.5762 287.436 74.5762 285.923C74.5762 284.41 71.3038 283.183 67.2672 283.183C63.2306 283.183 59.9583 284.41 59.9583 285.923C59.9583 287.436 63.2306 288.662 67.2672 288.662Z" fill="#2F2E41"/>
<path d="M56.3037 250.309C61.7532 250.309 66.1708 245.894 66.1708 240.447C66.1708 235 61.7532 230.584 56.3037 230.584C50.8543 230.584 46.4366 235 46.4366 240.447C46.4366 245.894 50.8543 250.309 56.3037 250.309Z" fill="white"/>
<path d="M56.3038 243.734C58.1203 243.734 59.5928 242.262 59.5928 240.447C59.5928 238.631 58.1203 237.159 56.3038 237.159C54.4873 237.159 53.0148 238.631 53.0148 240.447C53.0148 242.262 54.4873 243.734 56.3038 243.734Z" fill="#3F3D56"/>
<path d="M27.5677 220.917C25.2365 210.482 32.6883 199.938 44.2116 197.366C55.735 194.794 66.9663 201.168 69.2974 211.603C71.6286 222.038 63.9916 225.887 52.4683 228.459C40.9449 231.03 29.8989 231.352 27.5677 220.917Z" fill="#E6E6E6"/>
<path d="M76.6236 144.662C79.47 137.219 79.8822 130.461 77.5444 129.568C75.2066 128.675 71.004 133.985 68.1577 141.428C65.3113 148.871 64.8991 155.629 67.2369 156.522C69.5747 157.416 73.7773 152.106 76.6236 144.662Z" fill="#2F2E41"/>
<path d="M74.2033 169.458C76.7574 153.727 66.069 138.905 50.3302 136.352C34.5915 133.799 19.7622 144.482 17.2081 160.214C14.6541 175.945 25.3424 190.767 41.0812 193.32C56.82 195.872 71.6493 185.189 74.2033 169.458Z" fill="#2F2E41"/>
<path d="M41.3204 187.482H32.5497V203.189H41.3204V187.482Z" fill="#2F2E41"/>
<path d="M58.8619 187.482H50.0912V203.189H58.8619V187.482Z" fill="#2F2E41"/>
<path d="M39.8586 206.111C43.8953 206.111 47.1676 204.885 47.1676 203.372C47.1676 201.859 43.8953 200.632 39.8586 200.632C35.822 200.632 32.5497 201.859 32.5497 203.372C32.5497 204.885 35.822 206.111 39.8586 206.111Z" fill="#2F2E41"/>
<path d="M57.4002 205.746C61.4368 205.746 64.7091 204.52 64.7091 203.007C64.7091 201.494 61.4368 200.267 57.4002 200.267C53.3635 200.267 50.0912 201.494 50.0912 203.007C50.0912 204.52 53.3635 205.746 57.4002 205.746Z" fill="#2F2E41"/>
<path d="M46.4367 167.393C51.8861 167.393 56.3038 162.977 56.3038 157.53C56.3038 152.083 51.8861 147.668 46.4367 147.668C40.9872 147.668 36.5696 152.083 36.5696 157.53C36.5696 162.977 40.9872 167.393 46.4367 167.393Z" fill="white"/>
<path d="M46.4367 160.818C48.2532 160.818 49.7258 159.346 49.7258 157.53C49.7258 155.715 48.2532 154.243 46.4367 154.243C44.6203 154.243 43.1477 155.715 43.1477 157.53C43.1477 159.346 44.6203 160.818 46.4367 160.818Z" fill="#3F3D56"/>
<path d="M17.7006 138C15.3695 127.565 22.8212 117.021 34.3446 114.449C45.8679 111.878 57.0992 118.252 59.4304 128.687C61.7615 139.122 54.1246 142.97 42.6012 145.542C31.0779 148.114 20.0318 148.435 17.7006 138Z" fill="#0477BD"/>
<path d="M26.2307 157.629C27.3032 155.369 22.3333 150.769 15.1301 147.354C7.92687 143.939 1.21806 143.003 0.145553 145.263C-0.926951 147.524 4.04299 152.124 11.2462 155.539C18.4494 158.954 25.1582 159.89 26.2307 157.629Z" fill="#2F2E41"/>
<path d="M31.5248 175.246C31.5248 178.07 38.8003 183.647 46.8736 183.647C54.9468 183.647 62.5164 175.696 62.5164 172.872C62.5164 170.048 54.9468 173.42 46.8736 173.42C38.8004 173.42 31.5248 172.422 31.5248 175.246Z" fill="white"/>
<path d="M74.09 54.6533C73.5569 54.6539 73.0457 54.8659 72.6686 55.2427C72.2916 55.6196 72.0796 56.1305 72.079 56.6634V139.747C72.0796 140.28 72.2916 140.791 72.6686 141.168C73.0457 141.545 73.5569 141.757 74.09 141.757H266.482C267.015 141.757 267.526 141.545 267.903 141.168C268.28 140.791 268.492 140.28 268.493 139.747V56.6634C268.492 56.1305 268.28 55.6196 267.903 55.2427C267.526 54.8659 267.015 54.6539 266.482 54.6533H74.09Z" fill="#0477BD"/>
<path d="M126.039 117.717C136.82 117.717 145.56 108.982 145.56 98.2054C145.56 87.4292 136.82 78.6934 126.039 78.6934C115.257 78.6934 106.517 87.4292 106.517 98.2054C106.517 108.982 115.257 117.717 126.039 117.717Z" fill="white"/>
<path d="M170.098 95.6092C169.499 95.619 168.928 95.8637 168.508 96.2905C168.088 96.7173 167.853 97.2919 167.853 97.8906C167.853 98.4892 168.088 99.0639 168.508 99.4906C168.928 99.9174 169.499 100.162 170.098 100.172H231.734C232.034 100.177 232.332 100.123 232.611 100.013C232.89 99.9031 233.145 99.7392 233.36 99.5309C233.576 99.3225 233.748 99.0737 233.868 98.7986C233.987 98.5236 234.051 98.2278 234.056 97.928C234.061 97.6283 234.007 97.3305 233.896 97.0517C233.786 96.7729 233.622 96.5186 233.413 96.3033C233.205 96.0879 232.955 95.9158 232.68 95.7967C232.405 95.6776 232.109 95.6139 231.809 95.6092C231.784 95.6088 231.759 95.6088 231.734 95.6092H170.098Z" fill="white"/>
<path d="M170.098 82.3914C169.499 82.4013 168.928 82.646 168.508 83.0727C168.088 83.4995 167.853 84.0741 167.853 84.6728C167.853 85.2714 168.088 85.8461 168.508 86.2728C168.928 86.6996 169.499 86.9443 170.098 86.9541H200.878C201.178 86.9593 201.476 86.9053 201.755 86.7953C202.034 86.6853 202.288 86.5215 202.504 86.3131C202.719 86.1047 202.892 85.8559 203.011 85.5809C203.131 85.3058 203.195 85.01 203.199 84.7103C203.204 84.4105 203.15 84.1127 203.04 83.8339C202.93 83.5551 202.765 83.3008 202.557 83.0855C202.348 82.8701 202.099 82.698 201.824 82.5789C201.549 82.4598 201.253 82.3961 200.953 82.3914C200.928 82.391 200.903 82.391 200.878 82.3914H170.098Z" fill="white"/>
<path d="M170.098 109.456C169.499 109.466 168.928 109.711 168.508 110.138C168.088 110.564 167.853 111.139 167.853 111.738C167.853 112.336 168.088 112.911 168.508 113.338C168.928 113.765 169.499 114.009 170.098 114.019H231.734C232.034 114.024 232.332 113.97 232.611 113.86C232.89 113.75 233.145 113.586 233.36 113.378C233.576 113.17 233.748 112.921 233.868 112.646C233.987 112.371 234.051 112.075 234.056 111.775C234.061 111.475 234.007 111.178 233.896 110.899C233.786 110.62 233.622 110.366 233.413 110.15C233.205 109.935 232.955 109.763 232.68 109.644C232.405 109.525 232.109 109.461 231.809 109.456C231.784 109.456 231.759 109.456 231.734 109.456H170.098Z" fill="white"/>
<path d="M469.443 263.137C471.78 262.244 471.368 255.486 468.522 248.043C465.675 240.599 461.473 235.289 459.135 236.182C456.797 237.076 457.21 243.834 460.056 251.277C462.902 258.72 467.105 264.03 469.443 263.137Z" fill="#2F2E41"/>
<path d="M489.565 305.964C505.304 303.412 515.992 288.589 513.438 272.858C510.884 257.127 496.055 246.444 480.316 248.997C464.577 251.55 453.889 266.372 456.443 282.103C458.997 297.834 473.826 308.517 489.565 305.964Z" fill="#2F2E41"/>
<path d="M498.096 300.127H489.326L491.042 318.937L498.112 317.018L498.096 300.127Z" fill="#2F2E41"/>
<path d="M478.976 300.177H470.205L471.921 318.986L478.672 317.018L478.976 300.177Z" fill="#2F2E41"/>
<path d="M471.672 319.87C475.698 319.576 478.872 318.114 478.762 316.605C478.651 315.096 475.298 314.111 471.272 314.406C467.247 314.7 464.072 316.162 464.183 317.67C464.293 319.179 467.646 320.164 471.672 319.87Z" fill="#2F2E41"/>
<path d="M484.21 280.038C489.659 280.038 494.077 275.622 494.077 270.175C494.077 264.729 489.659 260.313 484.21 260.313C478.76 260.313 474.343 264.729 474.343 270.175C474.343 275.622 478.76 280.038 484.21 280.038Z" fill="white"/>
<path d="M484.21 273.463C486.026 273.463 487.499 271.991 487.499 270.175C487.499 268.36 486.026 266.888 484.21 266.888C482.393 266.888 480.921 268.36 480.921 270.175C480.921 271.991 482.393 273.463 484.21 273.463Z" fill="#3F3D56"/>
<path d="M519.092 260.082C523.829 253.672 526.037 247.271 524.024 245.785C522.01 244.299 516.539 248.29 511.802 254.7C507.066 261.109 504.858 267.51 506.871 268.996C508.884 270.483 514.356 266.491 519.092 260.082Z" fill="#2F2E41"/>
<path d="M470.854 292.36C470.854 290.032 476.851 285.436 483.505 285.436C490.158 285.436 496.397 291.989 496.397 294.316C496.397 296.644 490.158 293.865 483.505 293.865C476.851 293.865 470.854 294.687 470.854 292.36Z" fill="white"/>
<path d="M565.897 253.634L407.864 231.737C406.632 231.565 405.519 230.911 404.768 229.919C404.018 228.928 403.691 227.679 403.861 226.447L421.626 98.3563C421.799 97.1248 422.453 96.0119 423.445 95.2617C424.437 94.5115 425.686 94.1852 426.919 94.3545L584.952 116.252C586.184 116.424 587.297 117.078 588.048 118.069C588.798 119.061 589.125 120.31 588.955 121.542L571.19 249.632C571.017 250.864 570.363 251.977 569.371 252.727C568.379 253.477 567.13 253.803 565.897 253.634V253.634Z" fill="#0477BD"/>
<path d="M509.283 213.659L428.603 202.479C428.501 202.467 428.402 202.445 428.304 202.414L475.625 141.638C475.915 141.259 476.3 140.963 476.742 140.782C477.184 140.6 477.665 140.539 478.138 140.605C478.611 140.67 479.058 140.86 479.434 141.155C479.809 141.449 480.1 141.839 480.276 142.282L499.736 190.164L500.668 192.456L509.283 213.659Z" fill="white"/>
<path opacity="0.2" d="M509.283 213.658L481.736 209.842L497.982 192.083L499.151 190.804L499.736 190.164L500.669 192.456L509.283 213.658Z" fill="black"/>
<path d="M554.205 219.883L484.423 210.214L500.669 192.456L501.838 191.176L523.007 168.033C523.373 167.686 523.808 167.419 524.283 167.25C524.759 167.081 525.265 167.014 525.768 167.054C526.271 167.093 526.761 167.238 527.204 167.478C527.648 167.719 528.036 168.05 528.343 168.45C528.421 168.563 528.491 168.68 528.553 168.802L554.205 219.883Z" fill="white"/>
<path d="M510.264 162.27C516.928 162.27 522.33 156.87 522.33 150.209C522.33 143.549 516.928 138.149 510.264 138.149C503.6 138.149 498.198 143.549 498.198 150.209C498.198 156.87 503.6 162.27 510.264 162.27Z" fill="white"/>
<path d="M444.222 106.225L429.614 104.201L427.589 118.802L442.197 120.826L444.222 106.225Z" fill="#3F3D56"/>
<path d="M512.946 250.645C515.277 240.21 507.825 229.666 496.302 227.094C484.778 224.523 473.547 230.897 471.216 241.332C468.885 251.767 476.522 255.615 488.045 258.187C499.569 260.759 510.615 261.08 512.946 250.645Z" fill="#F2F2F2"/>
<path d="M490.906 319.824C494.932 319.529 498.106 318.068 497.996 316.559C497.885 315.05 494.532 314.065 490.506 314.359C486.48 314.653 483.306 316.115 483.417 317.624C483.527 319.133 486.88 320.118 490.906 319.824Z" fill="#2F2E41"/>
<path d="M47.2555 337.884L6.063 324.657L41.6496 304.01L47.2555 337.884Z" fill="#212121"/>
<path d="M419.993 334.493L393.869 323.722L410.103 304.148L419.993 334.493Z" stroke="black"/>
<path d="M114.367 2.69409L133.204 32.5329H88.9253L114.367 2.69409Z" fill="#0477BD"/>
</g>
<defs>
<clipPath id="clip0">
<rect width="589" height="370" fill="white"/>
</clipPath>
</defs>
</svg>
