<svg width="431" height="221" viewBox="0 0 431 221" fill="none" xmlns="http://www.w3.org/2000/svg">
<path d="M143 211.828L455 221L428.318 195L156.082 202.068L143 211.828Z" fill="url(#paint0_linear)"/>
<path d="M39.9601 204.72C62.0295 204.72 79.9203 202.591 79.9203 199.964C79.9203 197.337 62.0295 195.207 39.9601 195.207C17.8907 195.207 0 197.337 0 199.964C0 202.591 17.8907 204.72 39.9601 204.72Z" fill="url(#paint1_linear)"/>
<path d="M39.9601 204.72C62.0295 204.72 79.9203 202.591 79.9203 199.964C79.9203 197.337 62.0295 195.207 39.9601 195.207C17.8907 195.207 0 197.337 0 199.964C0 202.591 17.8907 204.72 39.9601 204.72Z" fill="black"/>
<path d="M8.78149 199.964C11.865 199.964 14.3647 193.575 14.3647 185.694C14.3647 177.813 11.865 171.424 8.78149 171.424C5.69795 171.424 3.19824 177.813 3.19824 185.694C3.19824 193.575 5.69795 199.964 8.78149 199.964Z" fill="#302C48"/>
<path d="M44.7535 176.18H9.5791V196.793H44.7535V176.18Z" fill="#302C48"/>
<path d="M33.587 176.18H19.2302C19.2302 176.18 16.0398 179.616 16.0398 186.31C16.0398 193.005 19.2302 196.793 19.2302 196.793H33.587C31.593 193.886 30.5561 190.45 30.3966 186.927C30.3966 181.554 33.587 176.18 33.587 176.18Z" fill="white"/>
<path d="M43.9558 201.549C47.0394 201.549 49.5391 194.451 49.5391 185.694C49.5391 176.937 47.0394 169.838 43.9558 169.838C40.8723 169.838 38.3726 176.937 38.3726 185.694C38.3726 194.451 40.8723 201.549 43.9558 201.549Z" fill="#686B89"/>
<path d="M136.215 180.883C100.881 180.883 72.2378 152.251 72.2378 116.931C72.2378 81.611 100.881 52.9785 136.215 52.9785C171.549 52.9785 200.193 81.611 200.193 116.931C200.193 152.251 171.549 180.883 136.215 180.883Z" fill="#2F2E41"/>
<path d="M145.934 167.121H165.37V201.931H145.934V167.121Z" fill="#2F2E41"/>
<path d="M107.061 167.121H126.497V201.931H107.061V167.121Z" fill="#2F2E41"/>
<path d="M149.173 208.407C140.228 208.407 132.976 205.689 132.976 202.336C132.976 198.982 140.228 196.264 149.173 196.264C158.118 196.264 165.37 198.982 165.37 202.336C165.37 205.689 158.118 208.407 149.173 208.407Z" fill="#2F2E41"/>
<path d="M110.301 207.598C101.355 207.598 94.1037 204.879 94.1037 201.526C94.1037 198.173 101.355 195.455 110.301 195.455C119.246 195.455 126.497 198.173 126.497 201.526C126.497 204.879 119.246 207.598 110.301 207.598Z" fill="#2F2E41"/>
<path d="M134.595 122.598C122.519 122.598 112.73 112.812 112.73 100.74C112.73 88.669 122.519 78.8832 134.595 78.8832C146.672 78.8832 156.461 88.669 156.461 100.74C156.461 112.812 146.672 122.598 134.595 122.598Z" fill="white"/>
<path d="M134.596 108.026C130.571 108.026 127.307 104.764 127.307 100.74C127.307 96.7166 130.571 93.4547 134.596 93.4547C138.621 93.4547 141.885 96.7166 141.885 100.74C141.885 104.764 138.621 108.026 134.596 108.026Z" fill="#3F3D56"/>
<path d="M198.276 57.457C203.441 34.3309 186.928 10.9629 161.392 5.26313C135.856 -0.436609 110.967 13.6903 105.802 36.8164C100.636 59.9426 117.559 68.4719 143.095 74.1716C168.631 79.8714 193.11 80.5832 198.276 57.457Z" fill="#0477BD"/>
<path d="M76.2106 104.176C59.9689 97.2269 48.5714 87.462 50.7537 82.3652C52.9361 77.2684 67.8717 78.7698 84.1134 85.7186C100.355 92.6675 111.753 102.432 109.57 107.529C107.388 112.626 92.4524 111.125 76.2106 104.176Z" fill="#2F2E41"/>
<path d="M196.067 147.081C179.825 140.132 168.428 130.367 170.61 125.27C172.792 120.173 187.728 121.675 203.97 128.623C220.212 135.572 231.609 145.337 229.427 150.434C227.244 155.531 212.309 154.029 196.067 147.081Z" fill="#2F2E41"/>
<path d="M98.9626 135.55C98.9626 141.809 115.085 154.169 132.976 154.169C150.866 154.169 167.799 142.619 167.799 136.359C167.799 130.1 150.866 131.502 132.976 131.502C115.085 131.502 98.9626 129.291 98.9626 135.55Z" fill="white"/>
<path d="M25.4593 177.965C14.5312 162.102 19.4898 129.991 45.0529 97.492C70.6161 64.9934 97.4791 30.1182 65.1761 8.23135C54.9701 1.32264 36.8689 -2.49098 22.5708 5.41259" stroke="#CDD4E0" stroke-width="1.8" stroke-miterlimit="10"/>
<defs>
<linearGradient id="paint0_linear" x1="344.672" y1="242.209" x2="342.683" y2="180.989" gradientUnits="userSpaceOnUse">
<stop stop-color="#536DB5" stop-opacity="0"/>
<stop offset="1" stop-color="#0E284B" stop-opacity="0.212"/>
</linearGradient>
<linearGradient id="paint1_linear" x1="78.1368" y1="206.082" x2="75.7033" y2="183.872" gradientUnits="userSpaceOnUse">
<stop stop-color="#536DB5" stop-opacity="0"/>
<stop offset="1" stop-color="#0E284B" stop-opacity="0.212"/>
</linearGradient>
</defs>
</svg>
